<?xml version="1.0" standalone="no"?>
<!DOCTYPE svg PUBLIC "-//W3C//DTD SVG 20010904//EN"
 "http://www.w3.org/TR/2001/REC-SVG-20010904/DTD/svg10.dtd">
<svg version="1.0" xmlns="http://www.w3.org/2000/svg"
 width="400.000000pt" height="125.000000pt" viewBox="0 0 400.000000 125.000000"
 preserveAspectRatio="xMidYMid meet">

<g transform="translate(0.000000,125.000000) scale(0.100000,-0.100000)"
fill="#000000" stroke="none">
<path d="M313 894 c-8 -22 18 -41 66 -49 l38 -6 11 -77 c7 -42 15 -103 18
-134 4 -32 12 -62 19 -68 8 -7 71 -9 166 -8 l154 3 32 90 c50 136 55 130 -117
130 -138 0 -145 -1 -145 -20 0 -19 8 -20 118 -23 64 -1 117 -6 117 -10 -1 -26
-22 -31 -135 -34 -99 -2 -120 -6 -120 -18 0 -12 20 -16 113 -18 104 -2 112 -4
112 -22 0 -19 -7 -20 -130 -20 -72 0 -130 4 -130 9 0 33 -33 248 -40 254 -6 7
-110 36 -133 37 -4 0 -10 -7 -14 -16z"/>
<path d="M476 518 c-13 -19 -14 -25 -2 -43 17 -26 49 -31 70 -10 20 21 20 39
0 59 -22 22 -50 20 -68 -6z"/>
<path d="M676 524 c-21 -20 -20 -37 2 -57 26 -24 49 -21 68 8 16 24 16 27 -1
45 -22 24 -48 26 -69 4z"/>
</g>
</svg>
